vibeit_icons_01-Regular.ufo
<glyph name="heart01" format="1">
  <advance width="800"/>
  <unicode hex="C0001"/>
  <outline>
    <contour>
      <point x="386" y="64" type="line" smooth="yes"/>
      <point x="84" y="310"/>
      <point x="2" y="397"/>
      <point x="2" y="538" type="curve" smooth="yes"/>
      <point x="2" y="653"/>
      <point x="96" y="747"/>
      <point x="212" y="747" type="curve" smooth="yes"/>
      <point x="309" y="747"/>
      <point x="363" y="692"/>
      <point x="400" y="651" type="curve"/>
      <point x="437" y="692"/>
      <point x="491" y="747"/>
      <point x="588" y="747" type="curve" smooth="yes"/>
      <point x="704" y="747"/>
      <point x="798" y="653"/>
      <point x="798" y="538" type="curve" smooth="yes"/>
      <point x="798" y="397"/>
      <point x="716" y="310"/>
      <point x="414" y="64" type="curve" smooth="yes"/>
      <point x="400" y="53" type="line"/>
    </contour>
    <contour>
      <point x="45" y="417"/>
      <point x="121" y="336"/>
      <point x="400" y="109" type="curve"/>
      <point x="679" y="336"/>
      <point x="755" y="417"/>
      <point x="755" y="538" type="curve" smooth="yes"/>
      <point x="755" y="629"/>
      <point x="680" y="704"/>
      <point x="588" y="704" type="curve" smooth="yes"/>
      <point x="504" y="704"/>
      <point x="460" y="654"/>
      <point x="425" y="614" type="curve" smooth="yes"/>
      <point x="400" y="585" type="line"/>
      <point x="375" y="614" type="line" smooth="yes"/>
      <point x="340" y="654"/>
      <point x="296" y="704"/>
      <point x="212" y="704" type="curve" smooth="yes"/>
      <point x="120" y="704"/>
      <point x="45" y="629"/>
      <point x="45" y="538" type="curve" smooth="yes"/>
    </contour>
  </outline>
</glyph>
<glyph name="facebook" format="1">
  <advance width="800"/>
  <unicode hex="C0002"/>
  <outline>
    <contour>
      <point x="606" y="27"/>
      <point x="773" y="194"/>
      <point x="773" y="400" type="curve"/>
      <point x="773" y="606"/>
      <point x="606" y="773"/>
      <point x="400" y="773" type="curve"/>
      <point x="194" y="773"/>
      <point x="27" y="606"/>
      <point x="27" y="400" type="curve"/>
      <point x="27" y="194"/>
      <point x="194" y="27"/>
      <point x="400" y="27" type="curve"/>
    </contour>
    <contour>
      <point x="179" y="0"/>
      <point x="0" y="179"/>
      <point x="0" y="400" type="curve"/>
      <point x="0" y="621"/>
      <point x="179" y="800"/>
      <point x="400" y="800" type="curve"/>
      <point x="621" y="800"/>
      <point x="800" y="621"/>
      <point x="800" y="400" type="curve"/>
      <point x="800" y="179"/>
      <point x="621" y="0"/>
      <point x="400" y="0" type="curve"/>
    </contour>
    <contour>
      <point x="335" y="164" type="line"/>
      <point x="335" y="373" type="line"/>
      <point x="291" y="373" type="line"/>
      <point x="291" y="445" type="line"/>
      <point x="335" y="445" type="line"/>
      <point x="335" y="488" type="line"/>
      <point x="335" y="547"/>
      <point x="360" y="582"/>
      <point x="431" y="582" type="curve"/>
      <point x="491" y="582" type="line"/>
      <point x="491" y="510" type="line"/>
      <point x="454" y="510" type="line"/>
      <point x="426" y="510"/>
      <point x="424" y="500"/>
      <point x="424" y="481" type="curve"/>
      <point x="424" y="445" type="line"/>
      <point x="491" y="445" type="line"/>
      <point x="483" y="373" type="line"/>
      <point x="424" y="373" type="line"/>
      <point x="424" y="164" type="line"/>
      <point x="424" y="164" type="line"/>
    </contour>
  </outline>
</glyph>
<glyph name="amazon" format="1">
  <advance width="800"/>
  <unicode hex="C0003"/>
  <outline>
    <contour>
      <point x="606" y="27"/>
      <point x="773" y="194"/>
      <point x="773" y="400" type="curve" smooth="yes"/>
      <point x="773" y="606"/>
      <point x="606" y="773"/>
      <point x="400" y="773" type="curve" smooth="yes"/>
      <point x="194" y="773"/>
      <point x="27" y="606"/>
      <point x="27" y="400" type="curve" smooth="yes"/>
      <point x="27" y="194"/>
      <point x="194" y="27"/>
      <point x="400" y="27" type="curve" smooth="yes"/>
    </contour>
    <contour>
      <point x="179" y="0"/>
      <point x="0" y="179"/>
      <point x="0" y="400" type="curve" smooth="yes"/>
      <point x="0" y="621"/>
      <point x="179" y="800"/>
      <point x="400" y="800" type="curve" smooth="yes"/>
      <point x="621" y="800"/>
      <point x="800" y="621"/>
      <point x="800" y="400" type="curve" smooth="yes"/>
      <point x="800" y="179"/>
      <point x="621" y="0"/>
      <point x="400" y="0" type="curve" smooth="yes"/>
    </contour>
    <contour>
      <point x="182" y="295"/>
      <point x="180" y="290"/>
      <point x="184" y="286" type="curve" smooth="yes"/>
      <point x="241" y="221"/>
      <point x="316" y="182"/>
      <point x="400" y="182" type="curve" smooth="yes"/>
      <point x="459" y="182"/>
      <point x="528" y="206"/>
      <point x="576" y="250" type="curve" smooth="yes"/>
      <point x="584" y="257"/>
      <point x="577" y="268"/>
      <point x="569" y="264" type="curve" smooth="yes"/>
      <point x="516" y="235"/>
      <point x="458" y="222"/>
      <point x="405" y="222" type="curve" smooth="yes"/>
      <point x="326" y="222"/>
      <point x="250" y="249"/>
      <point x="189" y="294" type="curve"/>
      <point x="186" y="295" type="line"/>
    </contour>
    <contour>
      <point x="571" y="306"/>
      <point x="553" y="301"/>
      <point x="539" y="289" type="curve" smooth="yes"/>
      <point x="535" y="285"/>
      <point x="536" y="280"/>
      <point x="540" y="281" type="curve" smooth="yes"/>
      <point x="556" y="283"/>
      <point x="590" y="289"/>
      <point x="596" y="279" type="curve" smooth="yes"/>
      <point x="602" y="269"/>
      <point x="589" y="228"/>
      <point x="584" y="210" type="curve" smooth="yes"/>
      <point x="582" y="204"/>
      <point x="586" y="202"/>
      <point x="590" y="206" type="curve" smooth="yes"/>
      <point x="615" y="233"/>
      <point x="622" y="290"/>
      <point x="617" y="298" type="curve" smooth="yes"/>
      <point x="614" y="302"/>
      <point x="601" y="306"/>
      <point x="586" y="306" type="curve" smooth="yes"/>
    </contour>
    <contour>
      <point x="430" y="422" type="line" smooth="yes"/>
      <point x="430" y="400"/>
      <point x="431" y="382"/>
      <point x="420" y="363" type="curve" smooth="yes"/>
      <point x="411" y="347"/>
      <point x="398" y="337"/>
      <point x="382" y="337" type="curve" smooth="yes"/>
      <point x="362" y="337"/>
      <point x="349" y="354"/>
      <point x="349" y="378" type="curve" smooth="yes"/>
      <point x="349" y="425"/>
      <point x="391" y="434"/>
      <point x="430" y="434" type="curve"/>
    </contour>
    <contour>
      <point x="349" y="600"/>
      <point x="291" y="580"/>
      <point x="279" y="515" type="curve" smooth="yes"/>
      <point x="278" y="508"/>
      <point x="283" y="504"/>
      <point x="287" y="503" type="curve"/>
      <point x="340" y="497" type="line"/>
      <point x="345" y="497"/>
      <point x="349" y="502"/>
      <point x="349" y="507" type="curve" smooth="yes"/>
      <point x="354" y="530"/>
      <point x="372" y="541"/>
      <point x="393" y="541" type="curve" smooth="yes"/>
      <point x="404" y="541"/>
      <point x="417" y="537"/>
      <point x="424" y="526" type="curve" smooth="yes"/>
      <point x="431" y="515"/>
      <point x="430" y="499"/>
      <point x="430" y="486" type="curve" smooth="yes"/>
      <point x="430" y="479" type="line"/>
      <point x="399" y="475"/>
      <point x="358" y="473"/>
      <point x="328" y="459" type="curve" smooth="yes"/>
      <point x="294" y="444"/>
      <point x="270" y="413"/>
      <point x="270" y="368" type="curve" smooth="yes"/>
      <point x="270" y="310"/>
      <point x="306" y="281"/>
      <point x="351" y="281" type="curve" smooth="yes"/>
      <point x="390" y="281"/>
      <point x="411" y="290"/>
      <point x="441" y="322" type="curve"/>
      <point x="451" y="307"/>
      <point x="454" y="300"/>
      <point x="472" y="284" type="curve"/>
      <point x="476" y="282"/>
      <point x="481" y="282"/>
      <point x="485" y="286" type="curve"/>
      <point x="527" y="323" type="line" smooth="yes"/>
      <point x="531" y="326"/>
      <point x="530" y="332"/>
      <point x="527" y="337" type="curve" smooth="yes"/>
      <point x="517" y="352"/>
      <point x="506" y="363"/>
      <point x="506" y="389" type="curve" smooth="yes"/>
      <point x="506" y="476" type="line" smooth="yes"/>
      <point x="506" y="513"/>
      <point x="509" y="547"/>
      <point x="482" y="572" type="curve" smooth="yes"/>
      <point x="462" y="593"/>
      <point x="427" y="600"/>
      <point x="401" y="600" type="curve" smooth="yes"/>
    </contour>
  </outline>
</glyph>
<glyph name="behance" format="1">
  <advance width="800"/>
  <unicode hex="C0004"/>
  <outline>
    <contour>
      <point x="606" y="27"/>
      <point x="773" y="194"/>
      <point x="773" y="400" type="curve" smooth="yes"/>
      <point x="773" y="606"/>
      <point x="606" y="773"/>
      <point x="400" y="773" type="curve" smooth="yes"/>
      <point x="194" y="773"/>
      <point x="27" y="606"/>
      <point x="27" y="400" type="curve" smooth="yes"/>
      <point x="27" y="194"/>
      <point x="194" y="27"/>
      <point x="400" y="27" type="curve" smooth="yes"/>
    </contour>
    <contour>
      <point x="179" y="0"/>
      <point x="0" y="179"/>
      <point x="0" y="400" type="curve" smooth="yes"/>
      <point x="0" y="621"/>
      <point x="179" y="800"/>
      <point x="400" y="800" type="curve" smooth="yes"/>
      <point x="621" y="800"/>
      <point x="800" y="621"/>
      <point x="800" y="400" type="curve" smooth="yes"/>
      <point x="800" y="179"/>
      <point x="621" y="0"/>
      <point x="400" y="0" type="curve" smooth="yes"/>
    </contour>
    <contour>
      <point x="401" y="490"/>
      <point x="404" y="478"/>
      <point x="404" y="463" type="curve" smooth="yes"/>
      <point x="404" y="448"/>
      <point x="401" y="436"/>
      <point x="393" y="426" type="curve" smooth="yes"/>
      <point x="389" y="421"/>
      <point x="383" y="416"/>
      <point x="375" y="412" type="curve"/>
      <point x="387" y="408"/>
      <point x="396" y="400"/>
      <point x="403" y="390" type="curve" smooth="yes"/>
      <point x="409" y="380"/>
      <point x="412" y="368"/>
      <point x="412" y="354" type="curve" smooth="yes"/>
      <point x="412" y="339"/>
      <point x="408" y="326"/>
      <point x="401" y="314" type="curve" smooth="yes"/>
      <point x="397" y="307"/>
      <point x="391" y="300"/>
      <point x="385" y="295" type="curve" smooth="yes"/>
      <point x="377" y="289"/>
      <point x="368" y="285"/>
      <point x="358" y="282" type="curve" smooth="yes"/>
      <point x="348" y="280"/>
      <point x="337" y="279"/>
      <point x="325" y="279" type="curve" smooth="yes"/>
      <point x="218" y="279" type="line"/>
      <point x="218" y="527" type="line"/>
      <point x="332" y="527" type="line" smooth="yes"/>
      <point x="361" y="527"/>
      <point x="381" y="518"/>
      <point x="393" y="501" type="curve" smooth="yes"/>
    </contour>
    <contour>
      <point x="265" y="429" type="line"/>
      <point x="323" y="429" type="line" smooth="yes"/>
      <point x="333" y="429"/>
      <point x="341" y="431"/>
      <point x="348" y="436" type="curve" smooth="yes"/>
      <point x="354" y="440"/>
      <point x="357" y="447"/>
      <point x="357" y="457" type="curve" smooth="yes"/>
      <point x="357" y="469"/>
      <point x="353" y="477"/>
      <point x="344" y="480" type="curve"/>
      <point x="337" y="483"/>
      <point x="328" y="484"/>
      <point x="317" y="484" type="curve" smooth="yes"/>
      <point x="265" y="484" type="line"/>
    </contour>
    <contour>
      <point x="265" y="322" type="line"/>
      <point x="323" y="322" type="line" smooth="yes"/>
      <point x="333" y="322"/>
      <point x="341" y="324"/>
      <point x="346" y="326" type="curve" smooth="yes"/>
      <point x="357" y="332"/>
      <point x="362" y="342"/>
      <point x="362" y="357" type="curve" smooth="yes"/>
      <point x="362" y="370"/>
      <point x="357" y="379"/>
      <point x="347" y="384" type="curve" smooth="yes"/>
      <point x="341" y="387"/>
      <point x="333" y="388"/>
      <point x="323" y="388" type="curve" smooth="yes"/>
      <point x="265" y="388" type="line"/>
    </contour>
    <contour>
      <point x="567" y="453"/>
      <point x="577" y="444"/>
      <point x="584" y="432" type="curve" smooth="yes"/>
      <point x="592" y="421"/>
      <point x="596" y="408"/>
      <point x="598" y="394" type="curve" smooth="yes"/>
      <point x="600" y="385"/>
      <point x="600" y="373"/>
      <point x="600" y="357" type="curve"/>
      <point x="473" y="357" type="line"/>
      <point x="474" y="339"/>
      <point x="480" y="326"/>
      <point x="491" y="319" type="curve" smooth="yes"/>
      <point x="498" y="314"/>
      <point x="506" y="312"/>
      <point x="516" y="312" type="curve" smooth="yes"/>
      <point x="527" y="312"/>
      <point x="535" y="314"/>
      <point x="542" y="320" type="curve" smooth="yes"/>
      <point x="545" y="323"/>
      <point x="548" y="327"/>
      <point x="551" y="333" type="curve"/>
      <point x="598" y="333" type="line"/>
      <point x="596" y="322"/>
      <point x="591" y="311"/>
      <point x="581" y="299" type="curve" smooth="yes"/>
      <point x="565" y="282"/>
      <point x="543" y="273"/>
      <point x="515" y="273" type="curve" smooth="yes"/>
      <point x="492" y="273"/>
      <point x="471" y="280"/>
      <point x="454" y="295" type="curve" smooth="yes"/>
      <point x="436" y="310"/>
      <point x="427" y="335"/>
      <point x="427" y="369" type="curve" smooth="yes"/>
      <point x="427" y="401"/>
      <point x="435" y="425"/>
      <point x="451" y="442" type="curve" smooth="yes"/>
      <point x="467" y="459"/>
      <point x="488" y="467"/>
      <point x="513" y="467" type="curve" smooth="yes"/>
      <point x="529" y="467"/>
      <point x="542" y="465"/>
      <point x="554" y="459" type="curve" smooth="yes"/>
    </contour>
    <contour>
      <point x="480" y="410"/>
      <point x="476" y="401"/>
      <point x="474" y="389" type="curve"/>
      <point x="553" y="389" type="line"/>
      <point x="552" y="402"/>
      <point x="548" y="411"/>
      <point x="540" y="418" type="curve" smooth="yes"/>
      <point x="533" y="425"/>
      <point x="524" y="428"/>
      <point x="513" y="428" type="curve" smooth="yes"/>
      <point x="502" y="428"/>
      <point x="493" y="424"/>
      <point x="486" y="417" type="curve" smooth="yes"/>
    </contour>
    <contour>
      <point x="563" y="485" type="line"/>
      <point x="563" y="516" type="line"/>
      <point x="462" y="516" type="line"/>
      <point x="462" y="485" type="line"/>
    </contour>
  </outline>
</glyph>
<glyph name="dribble" format="1">
  <advance width="800"/>
  <unicode hex="C0005"/>
  <outline>
    <contour>
      <point x="606" y="27"/>
      <point x="773" y="194"/>
      <point x="773" y="400" type="curve" smooth="yes"/>
      <point x="773" y="606"/>
      <point x="606" y="773"/>
      <point x="400" y="773" type="curve" smooth="yes"/>
      <point x="194" y="773"/>
      <point x="27" y="606"/>
      <point x="27" y="400" type="curve" smooth="yes"/>
      <point x="27" y="194"/>
      <point x="194" y="27"/>
      <point x="400" y="27" type="curve" smooth="yes"/>
    </contour>
    <contour>
      <point x="179" y="0"/>
      <point x="0" y="179"/>
      <point x="0" y="400" type="curve" smooth="yes"/>
      <point x="0" y="621"/>
      <point x="179" y="800"/>
      <point x="400" y="800" type="curve" smooth="yes"/>
      <point x="621" y="800"/>
      <point x="800" y="621"/>
      <point x="800" y="400" type="curve" smooth="yes"/>
      <point x="800" y="179"/>
      <point x="621" y="0"/>
      <point x="400" y="0" type="curve" smooth="yes"/>
    </contour>
    <contour>
      <point x="593" y="453"/>
      <point x="589" y="466"/>
      <point x="584" y="478" type="curve" smooth="yes"/>
      <point x="579" y="490"/>
      <point x="573" y="501"/>
      <point x="566" y="512" type="curve" smooth="yes"/>
      <point x="559" y="522"/>
      <point x="550" y="532"/>
      <point x="541" y="541" type="curve" smooth="yes"/>
      <point x="532" y="550"/>
      <point x="522" y="559"/>
      <point x="512" y="566" type="curve" smooth="yes"/>
      <point x="501" y="573"/>
      <point x="490" y="579"/>
      <point x="478" y="584" type="curve" smooth="yes"/>
      <point x="466" y="589"/>
      <point x="453" y="593"/>
      <point x="440" y="596" type="curve" smooth="yes"/>
      <point x="427" y="599"/>
      <point x="414" y="600"/>
      <point x="400" y="600" type="curve" smooth="yes"/>
      <point x="386" y="600"/>
      <point x="373" y="599"/>
      <point x="360" y="596" type="curve" smooth="yes"/>
      <point x="347" y="593"/>
      <point x="334" y="589"/>
      <point x="322" y="584" type="curve" smooth="yes"/>
      <point x="310" y="579"/>
      <point x="299" y="573"/>
      <point x="288" y="566" type="curve" smooth="yes"/>
      <point x="278" y="559"/>
      <point x="268" y="550"/>
      <point x="259" y="541" type="curve" smooth="yes"/>
      <point x="250" y="532"/>
      <point x="241" y="522"/>
      <point x="234" y="512" type="curve" smooth="yes"/>
      <point x="227" y="501"/>
      <point x="221" y="490"/>
      <point x="216" y="478" type="curve" smooth="yes"/>
      <point x="211" y="466"/>
      <point x="207" y="453"/>
      <point x="204" y="440" type="curve" smooth="yes"/>
      <point x="201" y="427"/>
      <point x="200" y="414"/>
      <point x="200" y="400" type="curve" smooth="yes"/>
      <point x="200" y="386"/>
      <point x="201" y="373"/>
      <point x="204" y="360" type="curve" smooth="yes"/>
      <point x="207" y="347"/>
      <point x="211" y="334"/>
      <point x="216" y="322" type="curve" smooth="yes"/>
      <point x="221" y="310"/>
      <point x="227" y="299"/>
      <point x="234" y="288" type="curve" smooth="yes"/>
      <point x="241" y="278"/>
      <point x="250" y="268"/>
      <point x="259" y="259" type="curve" smooth="yes"/>
      <point x="268" y="250"/>
      <point x="278" y="241"/>
      <point x="288" y="234" type="curve" smooth="yes"/>
      <point x="299" y="227"/>
      <point x="310" y="221"/>
      <point x="322" y="216" type="curve" smooth="yes"/>
      <point x="334" y="211"/>
      <point x="347" y="207"/>
      <point x="360" y="204" type="curve" smooth="yes"/>
      <point x="373" y="201"/>
      <point x="386" y="200"/>
      <point x="400" y="200" type="curve" smooth="yes"/>
      <point x="414" y="200"/>
      <point x="427" y="201"/>
      <point x="440" y="204" type="curve" smooth="yes"/>
      <point x="453" y="207"/>
      <point x="466" y="211"/>
      <point x="478" y="216" type="curve" smooth="yes"/>
      <point x="490" y="221"/>
      <point x="501" y="227"/>
      <point x="512" y="234" type="curve" smooth="yes"/>
      <point x="522" y="241"/>
      <point x="532" y="250"/>
      <point x="541" y="259" type="curve" smooth="yes"/>
      <point x="550" y="268"/>
      <point x="559" y="278"/>
      <point x="566" y="288" type="curve" smooth="yes"/>
      <point x="573" y="299"/>
      <point x="579" y="310"/>
      <point x="584" y="322" type="curve" smooth="yes"/>
      <point x="589" y="334"/>
      <point x="593" y="347"/>
      <point x="596" y="360" type="curve" smooth="yes"/>
      <point x="599" y="373"/>
      <point x="600" y="386"/>
      <point x="600" y="400" type="curve" smooth="yes"/>
      <point x="600" y="414"/>
      <point x="599" y="427"/>
      <point x="596" y="440" type="curve" smooth="yes"/>
    </contour>
    <contour>
      <point x="568" y="402"/>
      <point x="510" y="415"/>
      <point x="452" y="407" type="curve"/>
      <point x="451" y="410"/>
      <point x="449" y="413"/>
      <point x="448" y="416" type="curve" smooth="yes"/>
      <point x="437" y="441" type="line"/>
      <point x="504" y="468"/>
      <point x="532" y="508"/>
      <point x="532" y="508" type="curve"/>
      <point x="556" y="479"/>
      <point x="570" y="442"/>
      <point x="571" y="402" type="curve"/>
    </contour>
    <contour>
      <point x="512" y="528"/>
      <point x="488" y="490"/>
      <point x="424" y="466" type="curve"/>
      <point x="394" y="520"/>
      <point x="362" y="563"/>
      <point x="360" y="566" type="curve"/>
      <point x="373" y="569"/>
      <point x="386" y="571"/>
      <point x="400" y="571" type="curve" smooth="yes"/>
      <point x="443" y="571"/>
      <point x="483" y="555"/>
      <point x="513" y="528" type="curve"/>
    </contour>
    <contour>
      <point x="329" y="551"/>
      <point x="361" y="509"/>
      <point x="391" y="456" type="curve"/>
      <point x="309" y="434"/>
      <point x="237" y="435"/>
      <point x="233" y="435" type="curve"/>
      <point x="244" y="488"/>
      <point x="279" y="532"/>
      <point x="327" y="554" type="curve"/>
    </contour>
    <contour>
      <point x="229" y="405" type="line"/>
      <point x="232" y="405"/>
      <point x="317" y="403"/>
      <point x="405" y="430" type="curve"/>
      <point x="410" y="420"/>
      <point x="414" y="410"/>
      <point x="419" y="401" type="curve"/>
      <point x="412" y="399" type="line" smooth="yes"/>
      <point x="320" y="369"/>
      <point x="273" y="286"/>
      <point x="273" y="286" type="curve"/>
      <point x="246" y="316"/>
      <point x="229" y="356"/>
      <point x="229" y="400" type="curve" smooth="yes"/>
    </contour>
    <contour>
      <point x="359" y="229"/>
      <point x="321" y="244"/>
      <point x="291" y="268" type="curve"/>
      <point x="295" y="265" type="line"/>
      <point x="295" y="265"/>
      <point x="328" y="337"/>
      <point x="429" y="372" type="curve" smooth="yes"/>
      <point x="430" y="372" type="line"/>
      <point x="454" y="310"/>
      <point x="464" y="258"/>
      <point x="467" y="243" type="curve"/>
      <point x="446" y="234"/>
      <point x="424" y="229"/>
      <point x="400" y="229" type="curve" smooth="yes"/>
    </contour>
    <contour>
      <point x="494" y="269"/>
      <point x="485" y="319"/>
      <point x="462" y="380" type="curve"/>
      <point x="517" y="389"/>
      <point x="565" y="374"/>
      <point x="569" y="373" type="curve"/>
      <point x="561" y="325"/>
      <point x="534" y="284"/>
      <point x="495" y="258" type="curve"/>
    </contour>
  </outline>
</glyph>
<glyph name="dropbox" format="1">
  <advance width="800"/>
  <unicode hex="C0006"/>
  <outline>
    <contour>
      <point x="606" y="27"/>
      <point x="773" y="194"/>
      <point x="773" y="400" type="curve"/>
      <point x="773" y="606"/>
      <point x="606" y="773"/>
      <point x="400" y="773" type="curve"/>
      <point x="194" y="773"/>
      <point x="27" y="606"/>
      <point x="27" y="400" type="curve"/>
      <point x="27" y="194"/>
      <point x="194" y="27"/>
      <point x="400" y="27" type="curve"/>
    </contour>
    <contour>
      <point x="179" y="0"/>
      <point x="0" y="179"/>
      <point x="0" y="400" type="curve"/>
      <point x="0" y="621"/>
      <point x="179" y="800"/>
      <point x="400" y="800" type="curve"/>
      <point x="621" y="800"/>
      <point x="800" y="621"/>
      <point x="800" y="400" type="curve"/>
      <point x="800" y="179"/>
      <point x="621" y="0"/>
      <point x="400" y="0" type="curve"/>
    </contour>
    <contour>
      <point x="281" y="436" type="line"/>
      <point x="400" y="361" type="line"/>
      <point x="318" y="290" type="line"/>
      <point x="200" y="369" type="line"/>
    </contour>
    <contour>
      <point x="400" y="511" type="line"/>
      <point x="281" y="436" type="line"/>
      <point x="200" y="503" type="line"/>
      <point x="318" y="582" type="line"/>
    </contour>
    <contour>
      <point x="519" y="436" type="line"/>
      <point x="400" y="511" type="line"/>
      <point x="482" y="582" type="line"/>
      <point x="600" y="503" type="line"/>
    </contour>
    <contour>
      <point x="519" y="436" type="line"/>
      <point x="600" y="369" type="line"/>
      <point x="482" y="290" type="line"/>
      <point x="400" y="361" type="line"/>
    </contour>
    <contour>
      <point x="483" y="275" type="line"/>
      <point x="518" y="299" type="line"/>
      <point x="518" y="273" type="line"/>
      <point x="400" y="200" type="line"/>
      <point x="282" y="273" type="line"/>
      <point x="282" y="299" type="line"/>
      <point x="318" y="275" type="line"/>
      <point x="400" y="346" type="line"/>
    </contour>
  </outline>
</glyph>
<glyph name="googledrive" format="1">
  <advance width="800"/>
  <unicode hex="C0007"/>
  <outline>
    <contour>
      <point x="606" y="27"/>
      <point x="773" y="194"/>
      <point x="773" y="400" type="curve"/>
      <point x="773" y="606"/>
      <point x="606" y="773"/>
      <point x="400" y="773" type="curve"/>
      <point x="194" y="773"/>
      <point x="27" y="606"/>
      <point x="27" y="400" type="curve"/>
      <point x="27" y="194"/>
      <point x="194" y="27"/>
      <point x="400" y="27" type="curve"/>
    </contour>
    <contour>
      <point x="179" y="0"/>
      <point x="0" y="179"/>
      <point x="0" y="400" type="curve"/>
      <point x="0" y="621"/>
      <point x="179" y="800"/>
      <point x="400" y="800" type="curve"/>
      <point x="621" y="800"/>
      <point x="800" y="621"/>
      <point x="800" y="400" type="curve"/>
      <point x="800" y="179"/>
      <point x="621" y="0"/>
      <point x="400" y="0" type="curve"/>
    </contour>
    <contour>
      <point x="600" y="324" type="line"/>
      <point x="597" y="318" type="line"/>
      <point x="543" y="220" type="line"/>
      <point x="541" y="218" type="line"/>
      <point x="280" y="218" type="line"/>
      <point x="283" y="224" type="line"/>
      <point x="337" y="322" type="line"/>
      <point x="338" y="324" type="line"/>
      <point x="341" y="324" type="line"/>
    </contour>
    <contour>
      <point x="355" y="575" type="line"/>
      <point x="351" y="581" type="line"/>
      <point x="358" y="581" type="line"/>
      <point x="467" y="582" type="line"/>
      <point x="469" y="582" type="line"/>
      <point x="470" y="580" type="line"/>
      <point x="597" y="353" type="line"/>
      <point x="600" y="347" type="line"/>
      <point x="593" y="347" type="line"/>
      <point x="484" y="347" type="line"/>
      <point x="482" y="347" type="line"/>
      <point x="481" y="349" type="line"/>
    </contour>
    <contour>
      <point x="389" y="462" type="line"/>
      <point x="263" y="236" type="line"/>
      <point x="259" y="230" type="line"/>
      <point x="256" y="236" type="line"/>
      <point x="201" y="333" type="line"/>
      <point x="200" y="335" type="line"/>
      <point x="201" y="337" type="line"/>
      <point x="327" y="564" type="line"/>
      <point x="331" y="570" type="line"/>
      <point x="334" y="564" type="line"/>
      <point x="389" y="466" type="line"/>
      <point x="390" y="464" type="line"/>
    </contour>
  </outline>
</glyph>
<glyph name="googleplus" format="1">
  <advance width="800"/>
  <unicode hex="C0008"/>
  <outline>
    <contour>
      <point x="606" y="27"/>
      <point x="773" y="194"/>
      <point x="773" y="400" type="curve" smooth="yes"/>
      <point x="773" y="606"/>
      <point x="606" y="773"/>
      <point x="400" y="773" type="curve" smooth="yes"/>
      <point x="194" y="773"/>
      <point x="27" y="606"/>
      <point x="27" y="400" type="curve" smooth="yes"/>
      <point x="27" y="194"/>
      <point x="194" y="27"/>
      <point x="400" y="27" type="curve" smooth="yes"/>
    </contour>
    <contour>
      <point x="179" y="0"/>
      <point x="0" y="179"/>
      <point x="0" y="400" type="curve" smooth="yes"/>
      <point x="0" y="621"/>
      <point x="179" y="800"/>
      <point x="400" y="800" type="curve" smooth="yes"/>
      <point x="621" y="800"/>
      <point x="800" y="621"/>
      <point x="800" y="400" type="curve" smooth="yes"/>
      <point x="800" y="179"/>
      <point x="621" y="0"/>
      <point x="400" y="0" type="curve" smooth="yes"/>
    </contour>
    <contour>
      <point x="282" y="184"/>
      <point x="246" y="216"/>
      <point x="246" y="254" type="curve" smooth="yes"/>
      <point x="246" y="291"/>
      <point x="290" y="321"/>
      <point x="340" y="321" type="curve" smooth="yes"/>
      <point x="351" y="321"/>
      <point x="362" y="319"/>
      <point x="372" y="316" type="curve"/>
      <point x="398" y="297"/>
      <point x="418" y="286"/>
      <point x="423" y="265" type="curve" smooth="yes"/>
      <point x="424" y="261"/>
      <point x="425" y="256"/>
      <point x="425" y="252" type="curve" smooth="yes"/>
      <point x="425" y="214"/>
      <point x="401" y="184"/>
      <point x="331" y="184" type="curve" smooth="yes"/>
    </contour>
    <contour>
      <point x="311" y="407"/>
      <point x="280" y="443"/>
      <point x="274" y="487" type="curve" smooth="yes"/>
      <point x="268" y="531"/>
      <point x="290" y="564"/>
      <point x="323" y="564" type="curve" smooth="yes"/>
      <point x="357" y="562"/>
      <point x="388" y="527"/>
      <point x="394" y="484" type="curve" smooth="yes"/>
      <point x="399" y="440"/>
      <point x="377" y="405"/>
      <point x="344" y="406" type="curve" smooth="yes"/>
    </contour>
    <contour>
      <point x="401" y="349"/>
      <point x="379" y="370"/>
      <point x="379" y="381" type="curve" smooth="yes"/>
      <point x="379" y="395"/>
      <point x="383" y="402"/>
      <point x="404" y="418" type="curve" smooth="yes"/>
      <point x="425" y="435"/>
      <point x="440" y="459"/>
      <point x="440" y="486" type="curve" smooth="yes"/>
      <point x="440" y="519"/>
      <point x="426" y="550"/>
      <point x="398" y="561" type="curve"/>
      <point x="439" y="561" type="line"/>
      <point x="468" y="582" type="line"/>
      <point x="339" y="582" type="line" smooth="yes"/>
      <point x="282" y="582"/>
      <point x="228" y="538"/>
      <point x="228" y="487" type="curve" smooth="yes"/>
      <point x="228" y="435"/>
      <point x="267" y="393"/>
      <point x="326" y="393" type="curve" smooth="yes"/>
      <point x="337" y="393" type="line"/>
      <point x="334" y="386"/>
      <point x="331" y="378"/>
      <point x="331" y="369" type="curve" smooth="yes"/>
      <point x="331" y="355"/>
      <point x="339" y="343"/>
      <point x="348" y="333" type="curve"/>
      <point x="326" y="333" type="line" smooth="yes"/>
      <point x="255" y="333"/>
      <point x="200" y="287"/>
      <point x="200" y="240" type="curve" smooth="yes"/>
      <point x="200" y="193"/>
      <point x="260" y="164"/>
      <point x="331" y="164" type="curve" smooth="yes"/>
      <point x="413" y="164"/>
      <point x="458" y="210"/>
      <point x="458" y="257" type="curve" smooth="yes"/>
      <point x="458" y="294"/>
      <point x="447" y="317"/>
      <point x="413" y="341" type="curve" smooth="yes"/>
    </contour>
    <contour>
      <point x="550" y="402" type="line"/>
      <point x="550" y="453" type="line"/>
      <point x="509" y="453" type="line"/>
      <point x="509" y="402" type="line"/>
      <point x="459" y="402" type="line"/>
      <point x="459" y="362" type="line"/>
      <point x="509" y="362" type="line"/>
      <point x="509" y="311" type="line"/>
      <point x="550" y="311" type="line"/>
      <point x="550" y="362" type="line"/>
      <point x="600" y="362" type="line"/>
      <point x="600" y="402" type="line"/>
    </contour>
  </outline>
</glyph>
<glyph name="instagram" format="1">
  <advance width="800"/>
  <unicode hex="C0009"/>
  <outline>
    <contour>
      <point x="606" y="27"/>
      <point x="773" y="194"/>
      <point x="773" y="400" type="curve" smooth="yes"/>
      <point x="773" y="606"/>
      <point x="606" y="773"/>
      <point x="400" y="773" type="curve" smooth="yes"/>
      <point x="194" y="773"/>
      <point x="27" y="606"/>
      <point x="27" y="400" type="curve" smooth="yes"/>
      <point x="27" y="194"/>
      <point x="194" y="27"/>
      <point x="400" y="27" type="curve" smooth="yes"/>
    </contour>
    <contour>
      <point x="179" y="0"/>
      <point x="0" y="179"/>
      <point x="0" y="400" type="curve" smooth="yes"/>
      <point x="0" y="621"/>
      <point x="179" y="800"/>
      <point x="400" y="800" type="curve" smooth="yes"/>
      <point x="621" y="800"/>
      <point x="800" y="621"/>
      <point x="800" y="400" type="curve" smooth="yes"/>
      <point x="800" y="179"/>
      <point x="621" y="0"/>
      <point x="400" y="0" type="curve" smooth="yes"/>
    </contour>
    <contour>
      <point x="455" y="444"/>
      <point x="426" y="473"/>
      <point x="391" y="473" type="curve" smooth="yes"/>
      <point x="356" y="473"/>
      <point x="327" y="444"/>
      <point x="327" y="409" type="curve" smooth="yes"/>
      <point x="327" y="374"/>
      <point x="356" y="345"/>
      <point x="391" y="345" type="curve" smooth="yes"/>
      <point x="426" y="345"/>
      <point x="455" y="374"/>
      <point x="455" y="409" type="curve" smooth="yes"/>
    </contour>
    <contour>
      <point x="491" y="354"/>
      <point x="446" y="309"/>
      <point x="391" y="309" type="curve" smooth="yes"/>
      <point x="336" y="309"/>
      <point x="291" y="354"/>
      <point x="291" y="409" type="curve" smooth="yes"/>
      <point x="291" y="464"/>
      <point x="336" y="509"/>
      <point x="391" y="509" type="curve" smooth="yes"/>
      <point x="446" y="509"/>
      <point x="491" y="464"/>
      <point x="491" y="409" type="curve" smooth="yes"/>
    </contour>
    <contour>
      <point x="545" y="485"/>
      <point x="533" y="473"/>
      <point x="518" y="473" type="curve" smooth="yes"/>
      <point x="503" y="473"/>
      <point x="491" y="485"/>
      <point x="491" y="500" type="curve" smooth="yes"/>
      <point x="491" y="515"/>
      <point x="503" y="527"/>
      <point x="518" y="527" type="curve" smooth="yes"/>
      <point x="533" y="527"/>
      <point x="545" y="515"/>
      <point x="545" y="500" type="curve" smooth="yes"/>
    </contour>
    <contour>
      <point x="371" y="563"/>
      <point x="309" y="566"/>
      <point x="282" y="555" type="curve" smooth="yes"/>
      <point x="273" y="552"/>
      <point x="267" y="547"/>
      <point x="260" y="540" type="curve" smooth="yes"/>
      <point x="253" y="533"/>
      <point x="248" y="527"/>
      <point x="245" y="518" type="curve" smooth="yes"/>
      <point x="234" y="491"/>
      <point x="237" y="429"/>
      <point x="237" y="400" type="curve" smooth="yes"/>
      <point x="237" y="371"/>
      <point x="234" y="309"/>
      <point x="245" y="282" type="curve" smooth="yes"/>
      <point x="248" y="273"/>
      <point x="253" y="267"/>
      <point x="260" y="260" type="curve" smooth="yes"/>
      <point x="267" y="253"/>
      <point x="273" y="248"/>
      <point x="282" y="245" type="curve" smooth="yes"/>
      <point x="309" y="234"/>
      <point x="371" y="237"/>
      <point x="400" y="237" type="curve" smooth="yes"/>
      <point x="429" y="237"/>
      <point x="491" y="234"/>
      <point x="518" y="245" type="curve" smooth="yes"/>
      <point x="527" y="248"/>
      <point x="533" y="253"/>
      <point x="540" y="260" type="curve" smooth="yes"/>
      <point x="547" y="267"/>
      <point x="552" y="273"/>
      <point x="555" y="282" type="curve" smooth="yes"/>
      <point x="566" y="309"/>
      <point x="563" y="371"/>
      <point x="563" y="400" type="curve" smooth="yes"/>
      <point x="563" y="429"/>
      <point x="566" y="491"/>
      <point x="555" y="518" type="curve" smooth="yes"/>
      <point x="552" y="527"/>
      <point x="547" y="533"/>
      <point x="540" y="540" type="curve" smooth="yes"/>
      <point x="533" y="547"/>
      <point x="527" y="552"/>
      <point x="518" y="555" type="curve" smooth="yes"/>
      <point x="491" y="566"/>
      <point x="429" y="563"/>
      <point x="400" y="563" type="curve" smooth="yes"/>
    </contour>
    <contour>
      <point x="600" y="372"/>
      <point x="600" y="345"/>
      <point x="599" y="317" type="curve" smooth="yes"/>
      <point x="597" y="285"/>
      <point x="590" y="257"/>
      <point x="566" y="234" type="curve" smooth="yes"/>
      <point x="543" y="210"/>
      <point x="515" y="203"/>
      <point x="483" y="201" type="curve" smooth="yes"/>
      <point x="455" y="200"/>
      <point x="428" y="200"/>
      <point x="400" y="200" type="curve" smooth="yes"/>
      <point x="372" y="200"/>
      <point x="345" y="200"/>
      <point x="317" y="201" type="curve" smooth="yes"/>
      <point x="285" y="203"/>
      <point x="257" y="210"/>
      <point x="234" y="234" type="curve" smooth="yes"/>
      <point x="210" y="257"/>
      <point x="203" y="285"/>
      <point x="201" y="317" type="curve" smooth="yes"/>
      <point x="200" y="345"/>
      <point x="200" y="372"/>
      <point x="200" y="400" type="curve" smooth="yes"/>
      <point x="200" y="428"/>
      <point x="200" y="455"/>
      <point x="201" y="483" type="curve" smooth="yes"/>
      <point x="203" y="515"/>
      <point x="210" y="543"/>
      <point x="234" y="566" type="curve" smooth="yes"/>
      <point x="257" y="590"/>
      <point x="285" y="597"/>
      <point x="317" y="599" type="curve" smooth="yes"/>
      <point x="345" y="600"/>
      <point x="372" y="600"/>
      <point x="400" y="600" type="curve" smooth="yes"/>
      <point x="428" y="600"/>
      <point x="455" y="600"/>
      <point x="483" y="599" type="curve" smooth="yes"/>
      <point x="515" y="597"/>
      <point x="543" y="590"/>
      <point x="566" y="566" type="curve" smooth="yes"/>
      <point x="590" y="543"/>
      <point x="597" y="515"/>
      <point x="599" y="483" type="curve" smooth="yes"/>
      <point x="600" y="455"/>
      <point x="600" y="428"/>
      <point x="600" y="400" type="curve" smooth="yes"/>
    </contour>
  </outline>
</glyph>
<glyph name="linkedin" format="1">
  <advance width="800"/>
  <unicode hex="C0010"/>
  <outline>
    <contour>
      <point x="606" y="27"/>
      <point x="773" y="194"/>
      <point x="773" y="400" type="curve" smooth="yes"/>
      <point x="773" y="606"/>
      <point x="606" y="773"/>
      <point x="400" y="773" type="curve" smooth="yes"/>
      <point x="194" y="773"/>
      <point x="27" y="606"/>
      <point x="27" y="400" type="curve" smooth="yes"/>
      <point x="27" y="194"/>
      <point x="194" y="27"/>
      <point x="400" y="27" type="curve" smooth="yes"/>
    </contour>
    <contour>
      <point x="179" y="0"/>
      <point x="0" y="179"/>
      <point x="0" y="400" type="curve" smooth="yes"/>
      <point x="0" y="621"/>
      <point x="179" y="800"/>
      <point x="400" y="800" type="curve" smooth="yes"/>
      <point x="621" y="800"/>
      <point x="800" y="621"/>
      <point x="800" y="400" type="curve" smooth="yes"/>
      <point x="800" y="179"/>
      <point x="621" y="0"/>
      <point x="400" y="0" type="curve" smooth="yes"/>
    </contour>
    <contour>
      <point x="298" y="465" type="line"/>
      <point x="298" y="218" type="line"/>
      <point x="227" y="218" type="line"/>
      <point x="227" y="465" type="line"/>
    </contour>
    <contour>
      <point x="235" y="496"/>
      <point x="218" y="515"/>
      <point x="218" y="539" type="curve" smooth="yes"/>
      <point x="218" y="563"/>
      <point x="235" y="582"/>
      <point x="261" y="582" type="curve" smooth="yes"/>
      <point x="288" y="582"/>
      <point x="304" y="563"/>
      <point x="304" y="539" type="curve" smooth="yes"/>
      <point x="304" y="515"/>
      <point x="288" y="496"/>
      <point x="261" y="496" type="curve" smooth="yes"/>
    </contour>
    <contour>
      <point x="501" y="218" type="line"/>
      <point x="501" y="346" type="line" smooth="yes"/>
      <point x="501" y="379"/>
      <point x="489" y="402"/>
      <point x="461" y="402" type="curve" smooth="yes"/>
      <point x="440" y="402"/>
      <point x="428" y="387"/>
      <point x="423" y="372" type="curve" smooth="yes"/>
      <point x="421" y="367"/>
      <point x="421" y="359"/>
      <point x="421" y="352" type="curve" smooth="yes"/>
      <point x="421" y="218" type="line"/>
      <point x="342" y="218" type="line" smooth="yes"/>
      <point x="342" y="218"/>
      <point x="343" y="445"/>
      <point x="342" y="465" type="curve"/>
      <point x="421" y="465" type="line"/>
      <point x="421" y="426" type="line"/>
      <point x="426" y="443"/>
      <point x="451" y="468"/>
      <point x="492" y="468" type="curve" smooth="yes"/>
      <point x="542" y="468"/>
      <point x="582" y="432"/>
      <point x="582" y="356" type="curve" smooth="yes"/>
      <point x="582" y="218" type="line"/>
    </contour>
  </outline>
</glyph>
<glyph name="like" format="1">
  <advance width="800"/>
  <unicode hex="C0011"/>
  <outline>
    <contour>
      <point x="606" y="27"/>
      <point x="773" y="194"/>
      <point x="773" y="400" type="curve" smooth="yes"/>
      <point x="773" y="606"/>
      <point x="606" y="773"/>
      <point x="400" y="773" type="curve" smooth="yes"/>
      <point x="194" y="773"/>
      <point x="27" y="606"/>
      <point x="27" y="400" type="curve" smooth="yes"/>
      <point x="27" y="194"/>
      <point x="194" y="27"/>
      <point x="400" y="27" type="curve" smooth="yes"/>
    </contour>
    <contour>
      <point x="179" y="0"/>
      <point x="0" y="179"/>
      <point x="0" y="400" type="curve" smooth="yes"/>
      <point x="0" y="621"/>
      <point x="179" y="800"/>
      <point x="400" y="800" type="curve" smooth="yes"/>
      <point x="621" y="800"/>
      <point x="800" y="621"/>
      <point x="800" y="400" type="curve" smooth="yes"/>
      <point x="800" y="179"/>
      <point x="621" y="0"/>
      <point x="400" y="0" type="curve" smooth="yes"/>
    </contour>
    <contour>
      <point x="469" y="527"/>
      <point x="461" y="526"/>
      <point x="453" y="523" type="curve" smooth="yes"/>
      <point x="445" y="520"/>
      <point x="438" y="517"/>
      <point x="431" y="512" type="curve" smooth="yes"/>
      <point x="425" y="508"/>
      <point x="419" y="503"/>
      <point x="414" y="499" type="curve" smooth="yes"/>
      <point x="409" y="495"/>
      <point x="404" y="491"/>
      <point x="400" y="486" type="curve"/>
      <point x="396" y="491"/>
      <point x="391" y="495"/>
      <point x="386" y="499" type="curve" smooth="yes"/>
      <point x="381" y="503"/>
      <point x="375" y="508"/>
      <point x="369" y="512" type="curve" smooth="yes"/>
      <point x="362" y="517"/>
      <point x="355" y="520"/>
      <point x="347" y="523" type="curve" smooth="yes"/>
      <point x="339" y="526"/>
      <point x="331" y="527"/>
      <point x="324" y="527" type="curve" smooth="yes"/>
      <point x="296" y="527"/>
      <point x="275" y="519"/>
      <point x="260" y="504" type="curve" smooth="yes"/>
      <point x="244" y="488"/>
      <point x="236" y="466"/>
      <point x="236" y="439" type="curve" smooth="yes"/>
      <point x="236" y="430"/>
      <point x="238" y="421"/>
      <point x="241" y="413" type="curve" smooth="yes"/>
      <point x="244" y="404"/>
      <point x="247" y="396"/>
      <point x="250" y="390" type="curve" smooth="yes"/>
      <point x="254" y="383"/>
      <point x="258" y="377"/>
      <point x="263" y="371" type="curve" smooth="yes"/>
      <point x="267" y="365"/>
      <point x="271" y="361"/>
      <point x="273" y="359" type="curve"/>
      <point x="278" y="354" type="line"/>
      <point x="392" y="240" type="line" smooth="yes"/>
      <point x="394" y="238"/>
      <point x="397" y="236"/>
      <point x="400" y="236" type="curve" smooth="yes"/>
      <point x="403" y="236"/>
      <point x="406" y="238"/>
      <point x="408" y="240" type="curve" smooth="yes"/>
      <point x="522" y="353" type="line" smooth="yes"/>
      <point x="550" y="382"/>
      <point x="564" y="411"/>
      <point x="564" y="439" type="curve" smooth="yes"/>
      <point x="564" y="466"/>
      <point x="556" y="488"/>
      <point x="540" y="504" type="curve" smooth="yes"/>
      <point x="525" y="519"/>
      <point x="504" y="527"/>
      <point x="476" y="527" type="curve" smooth="yes"/>
    </contour>
  </outline>
</glyph>
<glyph name="mail" format="1">
  <advance width="800"/>
  <unicode hex="C0012"/>
  <outline>
    <contour>
      <point x="606" y="27"/>
      <point x="773" y="194"/>
      <point x="773" y="400" type="curve" smooth="yes"/>
      <point x="773" y="606"/>
      <point x="606" y="773"/>
      <point x="400" y="773" type="curve" smooth="yes"/>
      <point x="194" y="773"/>
      <point x="27" y="606"/>
      <point x="27" y="400" type="curve" smooth="yes"/>
      <point x="27" y="194"/>
      <point x="194" y="27"/>
      <point x="400" y="27" type="curve" smooth="yes"/>
    </contour>
    <contour>
      <point x="179" y="0"/>
      <point x="0" y="179"/>
      <point x="0" y="400" type="curve" smooth="yes"/>
      <point x="0" y="621"/>
      <point x="179" y="800"/>
      <point x="400" y="800" type="curve" smooth="yes"/>
      <point x="621" y="800"/>
      <point x="800" y="621"/>
      <point x="800" y="400" type="curve" smooth="yes"/>
      <point x="800" y="179"/>
      <point x="621" y="0"/>
      <point x="400" y="0" type="curve" smooth="yes"/>
    </contour>
    <contour>
      <point x="229" y="462"/>
      <point x="220" y="470"/>
      <point x="212" y="480" type="curve" smooth="yes"/>
      <point x="204" y="490"/>
      <point x="200" y="499"/>
      <point x="200" y="508" type="curve" smooth="yes"/>
      <point x="200" y="519"/>
      <point x="203" y="528"/>
      <point x="209" y="535" type="curve" smooth="yes"/>
      <point x="215" y="542"/>
      <point x="224" y="545"/>
      <point x="236" y="545" type="curve" smooth="yes"/>
      <point x="564" y="545" type="line" smooth="yes"/>
      <point x="574" y="545"/>
      <point x="582" y="542"/>
      <point x="589" y="536" type="curve" smooth="yes"/>
      <point x="596" y="529"/>
      <point x="600" y="521"/>
      <point x="600" y="512" type="curve" smooth="yes"/>
      <point x="600" y="502"/>
      <point x="596" y="491"/>
      <point x="589" y="481" type="curve" smooth="yes"/>
      <point x="582" y="471"/>
      <point x="573" y="463"/>
      <point x="562" y="456" type="curve" smooth="yes"/>
      <point x="506" y="420"/>
      <point x="471" y="397"/>
      <point x="457" y="389" type="curve" smooth="yes"/>
      <point x="448" y="382" type="line" smooth="yes"/>
      <point x="443" y="379"/>
      <point x="439" y="376"/>
      <point x="436" y="374" type="curve" smooth="yes"/>
      <point x="424" y="368" type="line" smooth="yes"/>
      <point x="420" y="365"/>
      <point x="415" y="363"/>
      <point x="411" y="362" type="curve" smooth="yes"/>
      <point x="407" y="361"/>
      <point x="404" y="360"/>
      <point x="400" y="360" type="curve" smooth="yes"/>
      <point x="396" y="360"/>
      <point x="393" y="361"/>
      <point x="389" y="362" type="curve" smooth="yes"/>
      <point x="385" y="363"/>
      <point x="380" y="365"/>
      <point x="376" y="368" type="curve" smooth="yes"/>
      <point x="364" y="374" type="line" smooth="yes"/>
      <point x="361" y="376"/>
      <point x="357" y="379"/>
      <point x="352" y="382" type="curve" smooth="yes"/>
      <point x="343" y="389" type="line" smooth="yes"/>
      <point x="329" y="397"/>
      <point x="310" y="410"/>
      <point x="284" y="426" type="curve" smooth="yes"/>
      <point x="238" y="456" type="line" smooth="yes"/>
    </contour>
    <contour>
      <point x="586" y="439"/>
      <point x="594" y="445"/>
      <point x="600" y="452" type="curve"/>
      <point x="600" y="288" type="line" smooth="yes"/>
      <point x="600" y="279"/>
      <point x="597" y="271"/>
      <point x="590" y="264" type="curve" smooth="yes"/>
      <point x="583" y="258"/>
      <point x="574" y="255"/>
      <point x="564" y="255" type="curve" smooth="yes"/>
      <point x="236" y="255" type="line" smooth="yes"/>
      <point x="226" y="255"/>
      <point x="217" y="258"/>
      <point x="210" y="264" type="curve" smooth="yes"/>
      <point x="203" y="271"/>
      <point x="200" y="279"/>
      <point x="200" y="288" type="curve" smooth="yes"/>
      <point x="200" y="452" type="line"/>
      <point x="207" y="445"/>
      <point x="214" y="439"/>
      <point x="223" y="434" type="curve" smooth="yes"/>
      <point x="276" y="400"/>
      <point x="313" y="376"/>
      <point x="333" y="362" type="curve" smooth="yes"/>
      <point x="354" y="349" type="line" smooth="yes"/>
      <point x="359" y="346"/>
      <point x="366" y="342"/>
      <point x="375" y="339" type="curve" smooth="yes"/>
      <point x="384" y="336"/>
      <point x="392" y="334"/>
      <point x="400" y="334" type="curve" smooth="yes"/>
      <point x="408" y="334"/>
      <point x="416" y="336"/>
      <point x="425" y="339" type="curve" smooth="yes"/>
      <point x="434" y="342"/>
      <point x="441" y="346"/>
      <point x="446" y="349" type="curve" smooth="yes"/>
      <point x="467" y="362" type="line" smooth="yes"/>
      <point x="492" y="379"/>
      <point x="529" y="403"/>
      <point x="578" y="434" type="curve" smooth="yes"/>
    </contour>
  </outline>
</glyph>
<glyph name="map" format="1">
  <advance width="800"/>
  <unicode hex="C0013"/>
  <outline>
    <contour>
      <point x="606" y="27"/>
      <point x="773" y="194"/>
      <point x="773" y="400" type="curve" smooth="yes"/>
      <point x="773" y="606"/>
      <point x="606" y="773"/>
      <point x="400" y="773" type="curve" smooth="yes"/>
      <point x="194" y="773"/>
      <point x="27" y="606"/>
      <point x="27" y="400" type="curve" smooth="yes"/>
      <point x="27" y="194"/>
      <point x="194" y="27"/>
      <point x="400" y="27" type="curve" smooth="yes"/>
    </contour>
    <contour>
      <point x="179" y="0"/>
      <point x="0" y="179"/>
      <point x="0" y="400" type="curve" smooth="yes"/>
      <point x="0" y="621"/>
      <point x="179" y="800"/>
      <point x="400" y="800" type="curve" smooth="yes"/>
      <point x="621" y="800"/>
      <point x="800" y="621"/>
      <point x="800" y="400" type="curve" smooth="yes"/>
      <point x="800" y="179"/>
      <point x="621" y="0"/>
      <point x="400" y="0" type="curve" smooth="yes"/>
    </contour>
    <contour>
      <point x="255" y="398"/>
      <point x="400" y="182"/>
      <point x="400" y="182" type="curve" smooth="yes"/>
      <point x="400" y="182"/>
      <point x="545" y="398"/>
      <point x="545" y="476" type="curve" smooth="yes"/>
      <point x="545" y="555"/>
      <point x="480" y="618"/>
      <point x="400" y="618" type="curve" smooth="yes"/>
      <point x="320" y="618"/>
      <point x="255" y="555"/>
      <point x="255" y="476" type="curve" smooth="yes"/>
    </contour>
    <contour>
      <point x="307" y="521"/>
      <point x="352" y="564"/>
      <point x="400" y="564" type="curve" smooth="yes"/>
      <point x="448" y="564"/>
      <point x="492" y="521"/>
      <point x="492" y="473" type="curve" smooth="yes"/>
      <point x="492" y="424"/>
      <point x="448" y="373"/>
      <point x="399" y="373" type="curve" smooth="yes"/>
      <point x="351" y="373"/>
      <point x="307" y="425"/>
      <point x="307" y="473" type="curve" smooth="yes"/>
    </contour>
  </outline>
</glyph>
<glyph name="phone" format="1">
  <advance width="800"/>
  <unicode hex="C0014"/>
  <outline>
    <contour>
      <point x="606" y="27"/>
      <point x="773" y="194"/>
      <point x="773" y="400" type="curve" smooth="yes"/>
      <point x="773" y="606"/>
      <point x="606" y="773"/>
      <point x="400" y="773" type="curve" smooth="yes"/>
      <point x="194" y="773"/>
      <point x="27" y="606"/>
      <point x="27" y="400" type="curve" smooth="yes"/>
      <point x="27" y="194"/>
      <point x="194" y="27"/>
      <point x="400" y="27" type="curve" smooth="yes"/>
    </contour>
    <contour>
      <point x="179" y="0"/>
      <point x="0" y="179"/>
      <point x="0" y="400" type="curve" smooth="yes"/>
      <point x="0" y="621"/>
      <point x="179" y="800"/>
      <point x="400" y="800" type="curve" smooth="yes"/>
      <point x="621" y="800"/>
      <point x="800" y="621"/>
      <point x="800" y="400" type="curve" smooth="yes"/>
      <point x="800" y="179"/>
      <point x="621" y="0"/>
      <point x="400" y="0" type="curve" smooth="yes"/>
    </contour>
    <contour>
      <point x="467" y="333"/>
      <point x="467" y="307"/>
      <point x="440" y="307" type="curve" smooth="yes"/>
      <point x="413" y="307"/>
      <point x="387" y="333"/>
      <point x="360" y="360" type="curve" smooth="yes"/>
      <point x="333" y="387"/>
      <point x="307" y="413"/>
      <point x="307" y="440" type="curve" smooth="yes"/>
      <point x="307" y="467"/>
      <point x="333" y="467"/>
      <point x="360" y="493" type="curve" smooth="yes"/>
      <point x="387" y="520"/>
      <point x="307" y="600"/>
      <point x="280" y="600" type="curve" smooth="yes"/>
      <point x="253" y="600"/>
      <point x="200" y="520"/>
      <point x="200" y="520" type="curve"/>
      <point x="200" y="467"/>
      <point x="255" y="359"/>
      <point x="307" y="307" type="curve" smooth="yes"/>
      <point x="359" y="255"/>
      <point x="467" y="200"/>
      <point x="520" y="200" type="curve"/>
      <point x="520" y="200"/>
      <point x="600" y="253"/>
      <point x="600" y="280" type="curve" smooth="yes"/>
      <point x="600" y="307"/>
      <point x="520" y="387"/>
      <point x="493" y="360" type="curve" smooth="yes"/>
    </contour>
  </outline>
</glyph>
<glyph name="pinterest" format="1">
  <advance width="800"/>
  <unicode hex="C0015"/>
  <outline>
    <contour>
      <point x="606" y="27"/>
      <point x="773" y="194"/>
      <point x="773" y="400" type="curve" smooth="yes"/>
      <point x="773" y="606"/>
      <point x="606" y="773"/>
      <point x="400" y="773" type="curve" smooth="yes"/>
      <point x="194" y="773"/>
      <point x="27" y="606"/>
      <point x="27" y="400" type="curve" smooth="yes"/>
      <point x="27" y="194"/>
      <point x="194" y="27"/>
      <point x="400" y="27" type="curve" smooth="yes"/>
    </contour>
    <contour>
      <point x="179" y="0"/>
      <point x="0" y="179"/>
      <point x="0" y="400" type="curve" smooth="yes"/>
      <point x="0" y="621"/>
      <point x="179" y="800"/>
      <point x="400" y="800" type="curve" smooth="yes"/>
      <point x="621" y="800"/>
      <point x="800" y="621"/>
      <point x="800" y="400" type="curve" smooth="yes"/>
      <point x="800" y="179"/>
      <point x="621" y="0"/>
      <point x="400" y="0" type="curve" smooth="yes"/>
    </contour>
    <contour>
      <point x="218" y="384"/>
      <point x="236" y="342"/>
      <point x="273" y="327" type="curve" smooth="yes"/>
      <point x="280" y="324"/>
      <point x="285" y="327"/>
      <point x="287" y="333" type="curve" smooth="yes"/>
      <point x="292" y="355" type="line" smooth="yes"/>
      <point x="294" y="362"/>
      <point x="294" y="364"/>
      <point x="289" y="370" type="curve" smooth="yes"/>
      <point x="278" y="383"/>
      <point x="271" y="400"/>
      <point x="271" y="424" type="curve" smooth="yes"/>
      <point x="271" y="492"/>
      <point x="322" y="554"/>
      <point x="404" y="554" type="curve" smooth="yes"/>
      <point x="476" y="554"/>
      <point x="516" y="509"/>
      <point x="516" y="450" type="curve" smooth="yes"/>
      <point x="516" y="371"/>
      <point x="481" y="305"/>
      <point x="430" y="305" type="curve" smooth="yes"/>
      <point x="402" y="305"/>
      <point x="381" y="329"/>
      <point x="388" y="358" type="curve" smooth="yes"/>
      <point x="396" y="392"/>
      <point x="412" y="429"/>
      <point x="412" y="454" type="curve" smooth="yes"/>
      <point x="412" y="476"/>
      <point x="400" y="495"/>
      <point x="375" y="495" type="curve" smooth="yes"/>
      <point x="346" y="495"/>
      <point x="323" y="465"/>
      <point x="323" y="424" type="curve" smooth="yes"/>
      <point x="323" y="399"/>
      <point x="332" y="381"/>
      <point x="332" y="381" type="curve"/>
      <point x="297" y="233" type="line" smooth="yes"/>
      <point x="287" y="190"/>
      <point x="296" y="136"/>
      <point x="296" y="130" type="curve" smooth="yes"/>
      <point x="297" y="127"/>
      <point x="301" y="126"/>
      <point x="303" y="129" type="curve" smooth="yes"/>
      <point x="305" y="132"/>
      <point x="340" y="175"/>
      <point x="351" y="218" type="curve" smooth="yes"/>
      <point x="370" y="292" type="line"/>
      <point x="380" y="274"/>
      <point x="407" y="258"/>
      <point x="436" y="258" type="curve" smooth="yes"/>
      <point x="523" y="258"/>
      <point x="582" y="338"/>
      <point x="582" y="444" type="curve" smooth="yes"/>
      <point x="582" y="525"/>
      <point x="514" y="600"/>
      <point x="411" y="600" type="curve" smooth="yes"/>
      <point x="283" y="600"/>
      <point x="218" y="508"/>
      <point x="218" y="430" type="curve" smooth="yes"/>
    </contour>
  </outline>
</glyph>
<glyph name="skype" format="1">
  <advance width="800"/>
  <unicode hex="C0016"/>
  <outline>
    <contour>
      <point x="606" y="27"/>
      <point x="773" y="194"/>
      <point x="773" y="400" type="curve" smooth="yes"/>
      <point x="773" y="606"/>
      <point x="606" y="773"/>
      <point x="400" y="773" type="curve" smooth="yes"/>
      <point x="194" y="773"/>
      <point x="27" y="606"/>
      <point x="27" y="400" type="curve" smooth="yes"/>
      <point x="27" y="194"/>
      <point x="194" y="27"/>
      <point x="400" y="27" type="curve" smooth="yes"/>
    </contour>
    <contour>
      <point x="179" y="0"/>
      <point x="0" y="179"/>
      <point x="0" y="400" type="curve" smooth="yes"/>
      <point x="0" y="621"/>
      <point x="179" y="800"/>
      <point x="400" y="800" type="curve" smooth="yes"/>
      <point x="621" y="800"/>
      <point x="800" y="621"/>
      <point x="800" y="400" type="curve" smooth="yes"/>
      <point x="800" y="179"/>
      <point x="621" y="0"/>
      <point x="400" y="0" type="curve" smooth="yes"/>
    </contour>
    <contour>
      <point x="609" y="368"/>
      <point x="610" y="383"/>
      <point x="610" y="398" type="curve" smooth="yes"/>
      <point x="610" y="511"/>
      <point x="517" y="603"/>
      <point x="402" y="603" type="curve" smooth="yes"/>
      <point x="390" y="603"/>
      <point x="378" y="602"/>
      <point x="367" y="600" type="curve"/>
      <point x="348" y="611"/>
      <point x="326" y="618"/>
      <point x="303" y="618" type="curve" smooth="yes"/>
      <point x="236" y="618"/>
      <point x="182" y="565"/>
      <point x="182" y="499" type="curve" smooth="yes"/>
      <point x="182" y="477"/>
      <point x="188" y="457"/>
      <point x="198" y="439" type="curve"/>
      <point x="196" y="426"/>
      <point x="194" y="412"/>
      <point x="194" y="398" type="curve" smooth="yes"/>
      <point x="194" y="284"/>
      <point x="287" y="193"/>
      <point x="402" y="193" type="curve" smooth="yes"/>
      <point x="415" y="193"/>
      <point x="428" y="194"/>
      <point x="440" y="196" type="curve"/>
      <point x="457" y="187"/>
      <point x="477" y="182"/>
      <point x="497" y="182" type="curve" smooth="yes"/>
      <point x="564" y="182"/>
      <point x="618" y="235"/>
      <point x="618" y="301" type="curve" smooth="yes"/>
      <point x="618" y="320"/>
      <point x="614" y="338"/>
      <point x="606" y="354" type="curve"/>
    </contour>
    <contour>
      <point x="498" y="287"/>
      <point x="484" y="276"/>
      <point x="465" y="269" type="curve" smooth="yes"/>
      <point x="447" y="261"/>
      <point x="425" y="257"/>
      <point x="400" y="257" type="curve" smooth="yes"/>
      <point x="370" y="257"/>
      <point x="345" y="263"/>
      <point x="326" y="273" type="curve" smooth="yes"/>
      <point x="312" y="280"/>
      <point x="300" y="290"/>
      <point x="291" y="303" type="curve" smooth="yes"/>
      <point x="282" y="315"/>
      <point x="278" y="328"/>
      <point x="278" y="340" type="curve" smooth="yes"/>
      <point x="278" y="347"/>
      <point x="281" y="354"/>
      <point x="287" y="359" type="curve" smooth="yes"/>
      <point x="292" y="364"/>
      <point x="300" y="367"/>
      <point x="308" y="367" type="curve" smooth="yes"/>
      <point x="316" y="367"/>
      <point x="322" y="365"/>
      <point x="327" y="361" type="curve" smooth="yes"/>
      <point x="332" y="357"/>
      <point x="336" y="351"/>
      <point x="339" y="343" type="curve" smooth="yes"/>
      <point x="343" y="335"/>
      <point x="347" y="328"/>
      <point x="351" y="322" type="curve" smooth="yes"/>
      <point x="355" y="317"/>
      <point x="361" y="313"/>
      <point x="368" y="309" type="curve" smooth="yes"/>
      <point x="376" y="306"/>
      <point x="386" y="304"/>
      <point x="399" y="304" type="curve" smooth="yes"/>
      <point x="416" y="304"/>
      <point x="430" y="307"/>
      <point x="441" y="315" type="curve" smooth="yes"/>
      <point x="451" y="321"/>
      <point x="456" y="330"/>
      <point x="456" y="340" type="curve" smooth="yes"/>
      <point x="456" y="348"/>
      <point x="453" y="355"/>
      <point x="448" y="360" type="curve" smooth="yes"/>
      <point x="442" y="365"/>
      <point x="435" y="369"/>
      <point x="426" y="372" type="curve" smooth="yes"/>
      <point x="416" y="375"/>
      <point x="403" y="378"/>
      <point x="387" y="381" type="curve" smooth="yes"/>
      <point x="366" y="386"/>
      <point x="348" y="391"/>
      <point x="333" y="397" type="curve" smooth="yes"/>
      <point x="318" y="403"/>
      <point x="306" y="412"/>
      <point x="297" y="423" type="curve" smooth="yes"/>
      <point x="288" y="434"/>
      <point x="284" y="448"/>
      <point x="284" y="464" type="curve" smooth="yes"/>
      <point x="284" y="480"/>
      <point x="288" y="493"/>
      <point x="298" y="506" type="curve" smooth="yes"/>
      <point x="307" y="518"/>
      <point x="321" y="527"/>
      <point x="338" y="533" type="curve" smooth="yes"/>
      <point x="356" y="539"/>
      <point x="376" y="543"/>
      <point x="399" y="543" type="curve" smooth="yes"/>
      <point x="418" y="543"/>
      <point x="434" y="541"/>
      <point x="448" y="536" type="curve" smooth="yes"/>
      <point x="462" y="532"/>
      <point x="473" y="526"/>
      <point x="482" y="519" type="curve" smooth="yes"/>
      <point x="491" y="512"/>
      <point x="498" y="505"/>
      <point x="502" y="497" type="curve" smooth="yes"/>
      <point x="507" y="489"/>
      <point x="509" y="481"/>
      <point x="509" y="474" type="curve" smooth="yes"/>
      <point x="509" y="466"/>
      <point x="506" y="460"/>
      <point x="500" y="454" type="curve" smooth="yes"/>
      <point x="495" y="448"/>
      <point x="488" y="445"/>
      <point x="479" y="445" type="curve" smooth="yes"/>
      <point x="471" y="445"/>
      <point x="465" y="447"/>
      <point x="461" y="451" type="curve" smooth="yes"/>
      <point x="457" y="454"/>
      <point x="453" y="459"/>
      <point x="449" y="467" type="curve"/>
      <point x="444" y="477"/>
      <point x="437" y="484"/>
      <point x="430" y="490" type="curve" smooth="yes"/>
      <point x="423" y="495"/>
      <point x="411" y="498"/>
      <point x="395" y="498" type="curve" smooth="yes"/>
      <point x="380" y="498"/>
      <point x="368" y="495"/>
      <point x="359" y="489" type="curve" smooth="yes"/>
      <point x="351" y="483"/>
      <point x="346" y="477"/>
      <point x="346" y="469" type="curve" smooth="yes"/>
      <point x="346" y="464"/>
      <point x="348" y="461"/>
      <point x="351" y="457" type="curve" smooth="yes"/>
      <point x="353" y="454"/>
      <point x="358" y="450"/>
      <point x="363" y="448" type="curve" smooth="yes"/>
      <point x="368" y="445"/>
      <point x="374" y="443"/>
      <point x="380" y="441" type="curve" smooth="yes"/>
      <point x="408" y="435" type="line" smooth="yes"/>
      <point x="425" y="431"/>
      <point x="441" y="427"/>
      <point x="454" y="423" type="curve" smooth="yes"/>
      <point x="468" y="418"/>
      <point x="480" y="413"/>
      <point x="490" y="407" type="curve" smooth="yes"/>
      <point x="500" y="400"/>
      <point x="508" y="392"/>
      <point x="514" y="382" type="curve" smooth="yes"/>
      <point x="519" y="372"/>
      <point x="522" y="360"/>
      <point x="522" y="346" type="curve" smooth="yes"/>
      <point x="522" y="329"/>
      <point x="517" y="314"/>
      <point x="507" y="300" type="curve" smooth="yes"/>
    </contour>
  </outline>
</glyph>
<glyph name="twitter" format="1">
  <advance width="800"/>
  <unicode hex="C0017"/>
  <outline>
    <contour>
      <point x="606" y="27"/>
      <point x="773" y="194"/>
      <point x="773" y="400" type="curve" smooth="yes"/>
      <point x="773" y="606"/>
      <point x="606" y="773"/>
      <point x="400" y="773" type="curve" smooth="yes"/>
      <point x="194" y="773"/>
      <point x="27" y="606"/>
      <point x="27" y="400" type="curve" smooth="yes"/>
      <point x="27" y="194"/>
      <point x="194" y="27"/>
      <point x="400" y="27" type="curve" smooth="yes"/>
    </contour>
    <contour>
      <point x="179" y="0"/>
      <point x="0" y="179"/>
      <point x="0" y="400" type="curve" smooth="yes"/>
      <point x="0" y="621"/>
      <point x="179" y="800"/>
      <point x="400" y="800" type="curve" smooth="yes"/>
      <point x="621" y="800"/>
      <point x="800" y="621"/>
      <point x="800" y="400" type="curve" smooth="yes"/>
      <point x="800" y="179"/>
      <point x="621" y="0"/>
      <point x="400" y="0" type="curve" smooth="yes"/>
    </contour>
    <contour>
      <point x="571" y="504"/>
      <point x="584" y="520"/>
      <point x="589" y="539" type="curve"/>
      <point x="574" y="530"/>
      <point x="558" y="523"/>
      <point x="540" y="519" type="curve"/>
      <point x="525" y="535"/>
      <point x="505" y="545"/>
      <point x="483" y="545" type="curve" smooth="yes"/>
      <point x="439" y="545"/>
      <point x="404" y="508"/>
      <point x="404" y="463" type="curve" smooth="yes"/>
      <point x="404" y="456"/>
      <point x="405" y="450"/>
      <point x="406" y="444" type="curve"/>
      <point x="341" y="447"/>
      <point x="283" y="480"/>
      <point x="245" y="530" type="curve"/>
      <point x="238" y="518"/>
      <point x="234" y="504"/>
      <point x="234" y="489" type="curve" smooth="yes"/>
      <point x="234" y="460"/>
      <point x="248" y="435"/>
      <point x="269" y="420" type="curve"/>
      <point x="256" y="420"/>
      <point x="244" y="424"/>
      <point x="234" y="430" type="curve"/>
      <point x="234" y="429" type="line" smooth="yes"/>
      <point x="234" y="389"/>
      <point x="260" y="356"/>
      <point x="296" y="348" type="curve"/>
      <point x="290" y="346"/>
      <point x="283" y="345"/>
      <point x="276" y="345" type="curve" smooth="yes"/>
      <point x="271" y="345"/>
      <point x="266" y="346"/>
      <point x="261" y="347" type="curve"/>
      <point x="271" y="314"/>
      <point x="300" y="290"/>
      <point x="334" y="290" type="curve"/>
      <point x="307" y="267"/>
      <point x="274" y="254"/>
      <point x="237" y="254" type="curve" smooth="yes"/>
      <point x="231" y="254"/>
      <point x="224" y="255"/>
      <point x="218" y="255" type="curve"/>
      <point x="253" y="232"/>
      <point x="294" y="218"/>
      <point x="338" y="218" type="curve" smooth="yes"/>
      <point x="482" y="218"/>
      <point x="561" y="344"/>
      <point x="561" y="453" type="curve"/>
      <point x="561" y="464" type="line"/>
      <point x="576" y="476"/>
      <point x="590" y="490"/>
      <point x="600" y="507" type="curve"/>
      <point x="586" y="500"/>
      <point x="571" y="496"/>
      <point x="555" y="494" type="curve"/>
    </contour>
  </outline>
</glyph>
<glyph name="cart" format="1">
  <advance width="800"/>
  <unicode hex="C0018"/>
  <outline>
    <contour>
      <point x="752" y="651" type="line" smooth="yes"/>
      <point x="764" y="651"/>
      <point x="774" y="641"/>
      <point x="774" y="629" type="curve" smooth="yes"/>
      <point x="774" y="410" type="line" smooth="yes"/>
      <point x="774" y="400"/>
      <point x="766" y="390"/>
      <point x="756" y="388" type="curve" smooth="yes"/>
      <point x="240" y="281" type="line"/>
      <point x="212" y="213" type="line"/>
      <point x="686" y="213" type="line"/>
      <point x="686" y="169" type="line"/>
      <point x="180" y="169" type="line" smooth="yes"/>
      <point x="173" y="169"/>
      <point x="166" y="173"/>
      <point x="162" y="179" type="curve" smooth="yes"/>
      <point x="158" y="185"/>
      <point x="157" y="193"/>
      <point x="159" y="199" type="curve" smooth="yes"/>
      <point x="201" y="304" type="line"/>
      <point x="160" y="694" type="line"/>
      <point x="26" y="694" type="line"/>
      <point x="26" y="738" type="line"/>
      <point x="180" y="738" type="line" smooth="yes"/>
      <point x="191" y="738"/>
      <point x="201" y="730"/>
      <point x="202" y="718" type="curve" smooth="yes"/>
      <point x="209" y="651" type="line"/>
    </contour>
    <contour>
      <point x="243" y="327" type="line"/>
      <point x="730" y="428" type="line"/>
      <point x="730" y="607" type="line"/>
      <point x="214" y="607" type="line"/>
    </contour>
    <contour>
      <point x="637" y="38"/>
      <point x="598" y="77"/>
      <point x="598" y="126" type="curve" smooth="yes"/>
      <point x="598" y="174"/>
      <point x="637" y="213"/>
      <point x="686" y="213" type="curve" smooth="yes"/>
      <point x="734" y="213"/>
      <point x="774" y="174"/>
      <point x="774" y="126" type="curve" smooth="yes"/>
      <point x="774" y="77"/>
      <point x="734" y="38"/>
      <point x="686" y="38" type="curve" smooth="yes"/>
    </contour>
    <contour>
      <point x="661" y="169"/>
      <point x="642" y="150"/>
      <point x="642" y="126" type="curve" smooth="yes"/>
      <point x="642" y="101"/>
      <point x="661" y="82"/>
      <point x="686" y="82" type="curve" smooth="yes"/>
      <point x="710" y="82"/>
      <point x="730" y="101"/>
      <point x="730" y="126" type="curve" smooth="yes"/>
      <point x="730" y="150"/>
      <point x="710" y="169"/>
      <point x="686" y="169" type="curve" smooth="yes"/>
    </contour>
    <contour>
      <point x="109" y="38"/>
      <point x="70" y="77"/>
      <point x="70" y="126" type="curve" smooth="yes"/>
      <point x="70" y="174"/>
      <point x="109" y="213"/>
      <point x="158" y="213" type="curve" smooth="yes"/>
      <point x="206" y="213"/>
      <point x="246" y="174"/>
      <point x="246" y="126" type="curve" smooth="yes"/>
      <point x="246" y="77"/>
      <point x="206" y="38"/>
      <point x="158" y="38" type="curve" smooth="yes"/>
    </contour>
    <contour>
      <point x="134" y="169"/>
      <point x="114" y="150"/>
      <point x="114" y="126" type="curve" smooth="yes"/>
      <point x="114" y="101"/>
      <point x="134" y="82"/>
      <point x="158" y="82" type="curve" smooth="yes"/>
      <point x="182" y="82"/>
      <point x="202" y="101"/>
      <point x="202" y="126" type="curve" smooth="yes"/>
      <point x="202" y="150"/>
      <point x="182" y="169"/>
      <point x="158" y="169" type="curve" smooth="yes"/>
    </contour>
  </outline>
</glyph>
<glyph name="profile" format="1">
  <advance width="800"/>
  <unicode hex="C0019"/>
  <outline>
    <contour>
      <point x="309" y="394"/>
      <point x="235" y="468"/>
      <point x="235" y="559" type="curve" smooth="yes"/>
      <point x="235" y="650"/>
      <point x="309" y="723"/>
      <point x="400" y="723" type="curve" smooth="yes"/>
      <point x="491" y="723"/>
      <point x="565" y="650"/>
      <point x="565" y="559" type="curve" smooth="yes"/>
      <point x="565" y="468"/>
      <point x="491" y="394"/>
      <point x="400" y="394" type="curve" smooth="yes"/>
    </contour>
    <contour>
      <point x="468" y="435"/>
      <point x="524" y="490"/>
      <point x="524" y="559" type="curve" smooth="yes"/>
      <point x="524" y="627"/>
      <point x="468" y="682"/>
      <point x="400" y="682" type="curve" smooth="yes"/>
      <point x="332" y="682"/>
      <point x="276" y="627"/>
      <point x="276" y="559" type="curve" smooth="yes"/>
      <point x="276" y="490"/>
      <point x="332" y="435"/>
      <point x="400" y="435" type="curve" smooth="yes"/>
    </contour>
    <contour>
      <point x="750" y="76" type="line"/>
      <point x="729" y="77" type="line"/>
      <point x="428" y="77" type="line" smooth="yes"/>
      <point x="413" y="77"/>
      <point x="413" y="77"/>
      <point x="398" y="76" type="curve" smooth="yes"/>
      <point x="70" y="77" type="line"/>
      <point x="50" y="77" type="line"/>
      <point x="50" y="97" type="line" smooth="yes"/>
      <point x="50" y="210"/>
      <point x="104" y="315"/>
      <point x="194" y="380" type="curve" smooth="yes"/>
      <point x="213" y="394"/>
      <point x="232" y="397"/>
      <point x="251" y="391" type="curve" smooth="yes"/>
      <point x="259" y="388"/>
      <point x="266" y="383"/>
      <point x="276" y="376" type="curve" smooth="yes"/>
      <point x="279" y="375"/>
      <point x="288" y="368"/>
      <point x="288" y="368" type="curve" smooth="yes"/>
      <point x="300" y="360" type="line" smooth="yes"/>
      <point x="329" y="341"/>
      <point x="358" y="332"/>
      <point x="400" y="332" type="curve" smooth="yes"/>
      <point x="442" y="332"/>
      <point x="471" y="341"/>
      <point x="500" y="359" type="curve" smooth="yes"/>
      <point x="504" y="362"/>
      <point x="508" y="364"/>
      <point x="512" y="368" type="curve" smooth="yes"/>
      <point x="524" y="376" type="line" smooth="yes"/>
      <point x="534" y="383"/>
      <point x="542" y="387"/>
      <point x="550" y="390" type="curve" smooth="yes"/>
      <point x="569" y="397"/>
      <point x="588" y="394"/>
      <point x="607" y="380" type="curve" smooth="yes"/>
      <point x="696" y="314"/>
      <point x="750" y="210"/>
      <point x="750" y="97" type="curve" smooth="yes"/>
    </contour>
    <contour>
      <point x="574" y="353"/>
      <point x="569" y="353"/>
      <point x="564" y="351" type="curve" smooth="yes"/>
      <point x="560" y="350"/>
      <point x="555" y="347"/>
      <point x="548" y="342" type="curve" smooth="yes"/>
      <point x="545" y="341"/>
      <point x="536" y="334"/>
      <point x="536" y="334" type="curve"/>
      <point x="522" y="325" type="line" smooth="yes"/>
      <point x="487" y="302"/>
      <point x="450" y="290"/>
      <point x="400" y="291" type="curve" smooth="yes"/>
      <point x="350" y="291"/>
      <point x="313" y="303"/>
      <point x="278" y="325" type="curve"/>
      <point x="282" y="322"/>
      <point x="243" y="350"/>
      <point x="237" y="352" type="curve" smooth="yes"/>
      <point x="231" y="354"/>
      <point x="227" y="353"/>
      <point x="218" y="347" type="curve" smooth="yes"/>
      <point x="144" y="293"/>
      <point x="98" y="210"/>
      <point x="92" y="118" type="curve"/>
      <point x="398" y="118" type="line" smooth="yes"/>
      <point x="413" y="118"/>
      <point x="413" y="118"/>
      <point x="428" y="118" type="curve" smooth="yes"/>
      <point x="708" y="118" type="line"/>
      <point x="702" y="209"/>
      <point x="656" y="293"/>
      <point x="582" y="346" type="curve" smooth="yes"/>
    </contour>
  </outline>
</glyph>
<glyph name="settings" format="1">
  <advance width="800"/>
  <unicode hex="C0020"/>
  <outline>
    <contour>
      <point x="308" y="235"/>
      <point x="234" y="308"/>
      <point x="234" y="399" type="curve" smooth="yes"/>
      <point x="234" y="490"/>
      <point x="308" y="564"/>
      <point x="399" y="564" type="curve" smooth="yes"/>
      <point x="491" y="564"/>
      <point x="565" y="490"/>
      <point x="565" y="399" type="curve" smooth="yes"/>
      <point x="565" y="308"/>
      <point x="491" y="235"/>
      <point x="399" y="235" type="curve" smooth="yes"/>
    </contour>
    <contour>
      <point x="327" y="529"/>
      <point x="268" y="471"/>
      <point x="268" y="399" type="curve" smooth="yes"/>
      <point x="268" y="327"/>
      <point x="327" y="269"/>
      <point x="399" y="269" type="curve" smooth="yes"/>
      <point x="472" y="269"/>
      <point x="531" y="327"/>
      <point x="531" y="399" type="curve" smooth="yes"/>
      <point x="531" y="471"/>
      <point x="472" y="529"/>
      <point x="399" y="529" type="curve" smooth="yes"/>
    </contour>
    <contour>
      <point x="350" y="50" type="line"/>
      <point x="321" y="135" type="line"/>
      <point x="302" y="141"/>
      <point x="284" y="148"/>
      <point x="267" y="158" type="curve"/>
      <point x="186" y="118" type="line"/>
      <point x="116" y="187" type="line"/>
      <point x="157" y="267" type="line"/>
      <point x="147" y="285"/>
      <point x="140" y="303"/>
      <point x="134" y="321" type="curve"/>
      <point x="48" y="350" type="line"/>
      <point x="48" y="448" type="line"/>
      <point x="134" y="477" type="line"/>
      <point x="140" y="495"/>
      <point x="147" y="513"/>
      <point x="157" y="531" type="curve"/>
      <point x="116" y="611" type="line"/>
      <point x="186" y="680" type="line"/>
      <point x="267" y="640" type="line"/>
      <point x="284" y="650"/>
      <point x="302" y="657"/>
      <point x="321" y="663" type="curve"/>
      <point x="350" y="748" type="line"/>
      <point x="449" y="748" type="line"/>
      <point x="478" y="663" type="line"/>
      <point x="496" y="657"/>
      <point x="515" y="650"/>
      <point x="532" y="640" type="curve"/>
      <point x="613" y="680" type="line"/>
      <point x="683" y="611" type="line"/>
      <point x="642" y="531" type="line"/>
      <point x="652" y="513"/>
      <point x="659" y="495"/>
      <point x="665" y="477" type="curve"/>
      <point x="751" y="448" type="line"/>
      <point x="751" y="350" type="line"/>
      <point x="665" y="321" type="line"/>
      <point x="659" y="303"/>
      <point x="652" y="285"/>
      <point x="642" y="267" type="curve"/>
      <point x="683" y="187" type="line"/>
      <point x="613" y="118" type="line"/>
      <point x="532" y="158" type="line"/>
      <point x="515" y="148"/>
      <point x="496" y="141"/>
      <point x="478" y="135" type="curve"/>
      <point x="449" y="50" type="line"/>
    </contour>
    <contour>
      <point x="424" y="85" type="line"/>
      <point x="451" y="164" type="line"/>
      <point x="460" y="166" type="line" smooth="yes"/>
      <point x="482" y="172"/>
      <point x="503" y="180"/>
      <point x="523" y="192" type="curve" smooth="yes"/>
      <point x="531" y="197" type="line"/>
      <point x="606" y="159" type="line"/>
      <point x="641" y="194" type="line"/>
      <point x="603" y="269" type="line"/>
      <point x="608" y="277" type="line" smooth="yes"/>
      <point x="620" y="296"/>
      <point x="628" y="317"/>
      <point x="634" y="339" type="curve" smooth="yes"/>
      <point x="636" y="348" type="line"/>
      <point x="716" y="375" type="line"/>
      <point x="716" y="424" type="line"/>
      <point x="636" y="450" type="line"/>
      <point x="634" y="459" type="line" smooth="yes"/>
      <point x="628" y="481"/>
      <point x="620" y="502"/>
      <point x="608" y="521" type="curve" smooth="yes"/>
      <point x="603" y="529" type="line"/>
      <point x="641" y="604" type="line"/>
      <point x="606" y="639" type="line"/>
      <point x="531" y="601" type="line"/>
      <point x="523" y="606" type="line" smooth="yes"/>
      <point x="503" y="618"/>
      <point x="482" y="626"/>
      <point x="460" y="632" type="curve" smooth="yes"/>
      <point x="451" y="634" type="line"/>
      <point x="424" y="713" type="line"/>
      <point x="375" y="713" type="line"/>
      <point x="348" y="634" type="line"/>
      <point x="339" y="632" type="line" smooth="yes"/>
      <point x="317" y="626"/>
      <point x="296" y="618"/>
      <point x="276" y="606" type="curve" smooth="yes"/>
      <point x="268" y="601" type="line"/>
      <point x="193" y="639" type="line"/>
      <point x="158" y="604" type="line"/>
      <point x="196" y="529" type="line"/>
      <point x="191" y="521" type="line" smooth="yes"/>
      <point x="179" y="502"/>
      <point x="171" y="481"/>
      <point x="165" y="459" type="curve" smooth="yes"/>
      <point x="163" y="450" type="line"/>
      <point x="83" y="424" type="line"/>
      <point x="83" y="375" type="line"/>
      <point x="163" y="348" type="line"/>
      <point x="165" y="339" type="line" smooth="yes"/>
      <point x="171" y="317"/>
      <point x="179" y="296"/>
      <point x="191" y="277" type="curve" smooth="yes"/>
      <point x="196" y="269" type="line"/>
      <point x="158" y="194" type="line"/>
      <point x="193" y="159" type="line"/>
      <point x="268" y="197" type="line"/>
      <point x="276" y="192" type="line" smooth="yes"/>
      <point x="296" y="180"/>
      <point x="317" y="172"/>
      <point x="339" y="166" type="curve" smooth="yes"/>
      <point x="348" y="164" type="line"/>
      <point x="375" y="85" type="line"/>
    </contour>
  </outline>
</glyph>
<glyph name="share" format="1">
  <advance width="800"/>
  <unicode hex="C0021"/>
  <outline>
    <contour>
      <point x="510" y="590" type="line"/>
      <point x="538" y="617" type="line"/>
      <point x="400" y="752" type="line"/>
      <point x="263" y="617" type="line"/>
      <point x="290" y="590" type="line"/>
      <point x="380" y="678" type="line"/>
      <point x="380" y="298" type="line"/>
      <point x="421" y="298" type="line"/>
      <point x="421" y="678" type="line"/>
    </contour>
    <contour>
      <point x="194" y="50" type="line" smooth="yes"/>
      <point x="160" y="50"/>
      <point x="132" y="77"/>
      <point x="132" y="111" type="curve" smooth="yes"/>
      <point x="132" y="478" type="line" smooth="yes"/>
      <point x="132" y="512"/>
      <point x="160" y="539"/>
      <point x="194" y="539" type="curve" smooth="yes"/>
      <point x="338" y="539" type="line"/>
      <point x="338" y="498" type="line"/>
      <point x="194" y="498" type="line" smooth="yes"/>
      <point x="183" y="498"/>
      <point x="173" y="489"/>
      <point x="173" y="478" type="curve" smooth="yes"/>
      <point x="173" y="111" type="line" smooth="yes"/>
      <point x="173" y="100"/>
      <point x="183" y="91"/>
      <point x="194" y="91" type="curve" smooth="yes"/>
      <point x="607" y="91" type="line" smooth="yes"/>
      <point x="618" y="91"/>
      <point x="627" y="100"/>
      <point x="627" y="111" type="curve" smooth="yes"/>
      <point x="627" y="478" type="line" smooth="yes"/>
      <point x="627" y="489"/>
      <point x="618" y="498"/>
      <point x="607" y="498" type="curve" smooth="yes"/>
      <point x="462" y="498" type="line"/>
      <point x="462" y="539" type="line"/>
      <point x="607" y="539" type="line" smooth="yes"/>
      <point x="641" y="539"/>
      <point x="668" y="512"/>
      <point x="668" y="478" type="curve" smooth="yes"/>
      <point x="668" y="111" type="line" smooth="yes"/>
      <point x="668" y="77"/>
      <point x="641" y="50"/>
      <point x="607" y="50" type="curve" smooth="yes"/>
    </contour>
  </outline>
</glyph>
<glyph name="navicon" format="1">
  <advance width="800"/>
  <unicode hex="C0022"/>
  <outline>
    <contour>
      <point x="800" y="726" type="line"/>
      <point x="800" y="668" type="line"/>
      <point x="0" y="668" type="line"/>
      <point x="0" y="726" type="line"/>
    </contour>
    <contour>
      <point x="800" y="435" type="line"/>
      <point x="800" y="377" type="line"/>
      <point x="0" y="377" type="line"/>
      <point x="0" y="435" type="line"/>
    </contour>
    <contour>
      <point x="800" y="143" type="line"/>
      <point x="800" y="85" type="line"/>
      <point x="0" y="85" type="line"/>
      <point x="0" y="143" type="line"/>
    </contour>
  </outline>
</glyph>
<glyph name="close" format="1">
  <advance width="800"/>
  <unicode hex="C0023"/>
  <outline>
    <contour>
      <point x="55" y="91" type="line"/>
      <point x="88" y="59" type="line"/>
      <point x="399" y="367" type="line"/>
      <point x="711" y="59" type="line"/>
      <point x="744" y="91" type="line"/>
      <point x="433" y="400" type="line"/>
      <point x="744" y="709" type="line"/>
      <point x="711" y="741" type="line"/>
      <point x="399" y="433" type="line"/>
      <point x="88" y="741" type="line"/>
      <point x="55" y="709" type="line"/>
      <point x="366" y="400" type="line"/>
    </contour>
  </outline>
</glyph>
<glyph name="search" format="1">
  <advance width="800"/>
  <unicode hex="C0024"/>
  <outline>
    <contour>
      <point x="748" y="85" type="line"/>
      <point x="717" y="54" type="line"/>
      <point x="521" y="249" type="line"/>
      <point x="471" y="206"/>
      <point x="407" y="181"/>
      <point x="336" y="181" type="curve" smooth="yes"/>
      <point x="179" y="181"/>
      <point x="51" y="308"/>
      <point x="51" y="464" type="curve" smooth="yes"/>
      <point x="51" y="620"/>
      <point x="179" y="746"/>
      <point x="336" y="746" type="curve" smooth="yes"/>
      <point x="493" y="746"/>
      <point x="621" y="620"/>
      <point x="621" y="464" type="curve" smooth="yes"/>
      <point x="621" y="394"/>
      <point x="595" y="329"/>
      <point x="552" y="280" type="curve"/>
    </contour>
    <contour>
      <point x="201" y="706"/>
      <point x="92" y="597"/>
      <point x="92" y="464" type="curve" smooth="yes"/>
      <point x="92" y="330"/>
      <point x="201" y="221"/>
      <point x="336" y="221" type="curve" smooth="yes"/>
      <point x="470" y="221"/>
      <point x="580" y="330"/>
      <point x="580" y="464" type="curve" smooth="yes"/>
      <point x="580" y="597"/>
      <point x="470" y="706"/>
      <point x="336" y="706" type="curve" smooth="yes"/>
    </contour>
  </outline>
</glyph>
<glyph name="vibeit" format="1">
  <advance width="800"/>
  <unicode hex="C0025"/>
  <outline>
    <contour>
      <point x="606" y="27"/>
      <point x="773" y="194"/>
      <point x="773" y="400" type="curve" smooth="yes"/>
      <point x="773" y="606"/>
      <point x="606" y="773"/>
      <point x="400" y="773" type="curve" smooth="yes"/>
      <point x="194" y="773"/>
      <point x="27" y="606"/>
      <point x="27" y="400" type="curve" smooth="yes"/>
      <point x="27" y="194"/>
      <point x="194" y="27"/>
      <point x="400" y="27" type="curve" smooth="yes"/>
    </contour>
    <contour>
      <point x="179" y="0"/>
      <point x="0" y="179"/>
      <point x="0" y="400" type="curve" smooth="yes"/>
      <point x="0" y="621"/>
      <point x="179" y="800"/>
      <point x="400" y="800" type="curve" smooth="yes"/>
      <point x="621" y="800"/>
      <point x="800" y="621"/>
      <point x="800" y="400" type="curve" smooth="yes"/>
      <point x="800" y="179"/>
      <point x="621" y="0"/>
      <point x="400" y="0" type="curve" smooth="yes"/>
    </contour>
    <contour>
      <point x="451" y="549" type="line"/>
      <point x="317" y="317" type="line"/>
      <point x="183" y="549" type="line"/>
      <point x="266" y="549" type="line"/>
      <point x="317" y="462" type="line"/>
      <point x="367" y="549" type="line"/>
    </contour>
    <contour>
      <point x="534" y="549" type="line"/>
      <point x="618" y="549" type="line"/>
      <point x="400" y="173" type="line"/>
      <point x="359" y="245" type="line"/>
    </contour>
  </outline>
</glyph>
<glyph name="icon" format="1">
  <advance width="800"/>
  <unicode hex="C0026"/>
  <outline>
    <contour>
      <point x="451" y="548" type="line"/>
      <point x="316" y="314" type="line"/>
      <point x="181" y="548" type="line"/>
      <point x="265" y="548" type="line"/>
      <point x="316" y="460" type="line"/>
      <point x="367" y="548" type="line"/>
    </contour>
    <contour>
      <point x="534" y="548" type="line"/>
      <point x="618" y="548" type="line"/>
      <point x="400" y="169" type="line"/>
      <point x="358" y="242" type="line"/>
    </contour>
    <contour>
      <point x="219" y="73"/>
      <point x="73" y="219"/>
      <point x="73" y="400" type="curve" smooth="yes"/>
      <point x="73" y="580"/>
      <point x="219" y="727"/>
      <point x="400" y="727" type="curve" smooth="yes"/>
      <point x="580" y="727"/>
      <point x="727" y="580"/>
      <point x="727" y="400" type="curve" smooth="yes"/>
      <point x="727" y="219"/>
      <point x="580" y="73"/>
      <point x="400" y="73" type="curve" smooth="yes"/>
    </contour>
    <contour>
      <point x="179" y="799"/>
      <point x="0" y="621"/>
      <point x="0" y="400" type="curve" smooth="yes"/>
      <point x="0" y="179"/>
      <point x="179" y="0"/>
      <point x="400" y="0" type="curve" smooth="yes"/>
      <point x="621" y="0"/>
      <point x="799" y="179"/>
      <point x="799" y="400" type="curve" smooth="yes"/>
      <point x="799" y="621"/>
      <point x="621" y="799"/>
      <point x="400" y="799" type="curve" smooth="yes"/>
    </contour>
  </outline>
</glyph>
